<svg xmlns="http://www.w3.org/2000/svg" width="523.143" height="113.871" viewBox="0 0 523.143 113.871">
  <g id="Group_6696" data-name="Group 6696" transform="translate(-1211 -17706)">
    <g id="Group_6694" data-name="Group 6694">
      <path id="Path_18790" data-name="Path 18790" d="M188.783,112.778V70.792h41.986" transform="translate(1211 17706)" fill="#fff"/>
      <path id="Path_18791" data-name="Path 18791" d="M188.783,112.778V70.792h41.986" transform="translate(1211 17706)" fill="none" stroke="#000" stroke-linecap="round" stroke-linejoin="round" stroke-width="2"/>
      <path id="Path_18792" data-name="Path 18792" d="M230.768,70.792v41.986h-33.4" transform="translate(1211 17706)" fill="#fff"/>
      <path id="Path_18793" data-name="Path 18793" d="M230.768,70.792v41.986h-33.4" transform="translate(1211 17706)" fill="none" stroke="#000" stroke-linecap="round" stroke-linejoin="round" stroke-width="2"/>
      <path id="Path_18794" data-name="Path 18794" d="M188.783,35.444V28.806h41.986V70.792H188.783V61.62" transform="translate(1211 17706)" fill="#ffcf1e"/>
      <path id="Path_18795" data-name="Path 18795" d="M188.783,35.444V28.806h41.986V70.792H188.783V61.62" transform="translate(1211 17706)" fill="none" stroke="#000" stroke-linecap="round" stroke-linejoin="round" stroke-width="2"/>
      <path id="Path_18796" data-name="Path 18796" d="M170.851,70.792h17.931v41.986H146.8V70.792" transform="translate(1211 17706)" fill="#ffcf1e"/>
      <path id="Path_18797" data-name="Path 18797" d="M170.851,70.792h17.931v41.986H146.8V70.792" transform="translate(1211 17706)" fill="none" stroke="#000" stroke-linecap="round" stroke-linejoin="round" stroke-width="2"/>
      <path id="Path_18798" data-name="Path 18798" d="M176.481,28.61,191,49.338l-26.132,18.3-5.569,3.9L156.6,73.42,132.52,39.027l34.392-24.082,3.549,5.068" transform="translate(1211 17706)" fill="none" stroke="#000" stroke-linecap="round" stroke-linejoin="round" stroke-width="2"/>
      <path id="Path_18799" data-name="Path 18799" d="M208.408,105.311l-.882-3.731-.559-.163a9.97,9.97,0,0,1-2.02-.832l-.512-.281-3.257,2.013-1.934-1.934,2.012-3.258-.282-.51a10.066,10.066,0,0,1-.832-2.022l-.163-.558-3.73-.882V90.417l3.73-.881.163-.559a10.068,10.068,0,0,1,.832-2.02l.282-.512-2.012-3.258,1.934-1.934,3.257,2.012.512-.281a10.018,10.018,0,0,1,2.021-.832l.558-.163.882-3.731h2.735l.882,3.731.559.163a10,10,0,0,1,2.021.832l.511.281,3.258-2.012,1.932,1.934-2.011,3.258.281.512a9.962,9.962,0,0,1,.832,2.019l.162.56,3.732.881v2.736l-3.732.882-.162.559a10.041,10.041,0,0,1-.832,2.021l-.281.51,2.011,3.258-1.932,1.934-3.258-2.013-.511.281a10.031,10.031,0,0,1-2.02.832l-.56.163-.882,3.731Z" transform="translate(1211 17706)" fill="#fff"/>
      <path id="Path_18800" data-name="Path 18800" d="M210.352,79.259l.566,2.394.268,1.134,1.119.326a9.005,9.005,0,0,1,1.817.748l1.023.562.992-.613,2.089-1.29.814.815-1.289,2.089-.613.992.562,1.022a9.038,9.038,0,0,1,.748,1.818l.326,1.119,1.134.268,2.394.566v1.153l-2.394.566-1.134.268-.326,1.119a9.038,9.038,0,0,1-.748,1.818l-.562,1.022.613.992,1.289,2.089-.814.814-2.089-1.289-.992-.613-1.023.562a9.005,9.005,0,0,1-1.817.748l-1.119.326-.268,1.134-.566,2.394H209.2l-.566-2.394-.268-1.134-1.119-.326a9.038,9.038,0,0,1-1.818-.748l-1.022-.562-.992.613-2.089,1.289-.815-.814,1.29-2.089.613-.992-.562-1.023a9.006,9.006,0,0,1-.748-1.817l-.326-1.119-1.134-.268-2.394-.566V91.209l2.394-.566,1.135-.268.325-1.119a9.038,9.038,0,0,1,.748-1.818l.562-1.022-.613-.992-1.29-2.089.815-.815,2.089,1.29.992.613,1.022-.562a9.015,9.015,0,0,1,1.818-.748l1.119-.326.268-1.134.566-2.394Zm1.582-2h-4.317l-.93,3.934a10.948,10.948,0,0,0-2.222.916l-3.435-2.122-3.053,3.053,2.122,3.435a10.948,10.948,0,0,0-.916,2.222l-3.934.93v4.317l3.934.93A10.948,10.948,0,0,0,200.1,97.1l-2.122,3.435,3.053,3.053,3.435-2.122a10.948,10.948,0,0,0,2.222.916l.93,3.934h4.317l.93-3.934a10.947,10.947,0,0,0,2.222-.916l3.435,2.122,3.053-3.053L219.452,97.1a10.947,10.947,0,0,0,.916-2.222l3.934-.93V89.627l-3.934-.93a10.947,10.947,0,0,0-.916-2.222l2.122-3.435-3.053-3.053-3.435,2.122a10.947,10.947,0,0,0-2.222-.916Z" transform="translate(1211 17706)"/>
      <path id="Path_18801" data-name="Path 18801" d="M209.775,97.468a5.683,5.683,0,1,1,5.684-5.684,5.69,5.69,0,0,1-5.684,5.684" transform="translate(1211 17706)" fill="#fff"/>
      <path id="Path_18802" data-name="Path 18802" d="M209.776,87.1a4.683,4.683,0,1,1-4.683,4.683,4.689,4.689,0,0,1,4.683-4.683m0-2a6.683,6.683,0,1,0,6.683,6.683,6.683,6.683,0,0,0-6.683-6.683" transform="translate(1211 17706)"/>
    </g>
    <g id="Group_6693" data-name="Group 6693">
      <path id="Path_18803" data-name="Path 18803" d="M336.914,112.778v-8.5h30.36v8.5" transform="translate(1211 17706)" fill="#f19a95"/>
      <path id="Path_18804" data-name="Path 18804" d="M366.275,74.117v9.362a6,6,0,0,1-6,6h-27.24" transform="translate(1211 17706)" fill="none" stroke="#000" stroke-linecap="round" stroke-linejoin="round" stroke-width="3"/>
      <line id="Line_482" data-name="Line 482" y2="34.364" transform="translate(1577.274 17736)" fill="none" stroke="#000" stroke-linecap="round" stroke-linejoin="round" stroke-width="2"/>
      <path id="Path_18805" data-name="Path 18805" d="M321.758,89.479h-39.4a6,6,0,0,1-6-6V19.62a6,6,0,0,1,6-6h77.919a6,6,0,0,1,6,6v2.127" transform="translate(1211 17706)" fill="none" stroke="#000" stroke-linecap="round" stroke-linejoin="round" stroke-width="2"/>
      <line id="Line_483" data-name="Line 483" x2="88.919" transform="translate(1488.355 17736)" fill="none" stroke="#000" stroke-linecap="round" stroke-linejoin="round" stroke-width="2"/>
      <rect id="Rectangle_4272" data-name="Rectangle 4272" width="29.843" height="17.529" transform="translate(1497.648 17748.063)" fill="#f19a95"/>
      <line id="Line_484" data-name="Line 484" x2="29.843" transform="translate(1497.648 17773.504)" fill="none" stroke="#000" stroke-linecap="round" stroke-linejoin="round" stroke-width="2"/>
      <line id="Line_485" data-name="Line 485" x2="29.843" transform="translate(1497.648 17781.416)" fill="none" stroke="#000" stroke-linecap="round" stroke-linejoin="round" stroke-width="2"/>
      <path id="Path_18806" data-name="Path 18806" d="M349.478,56.366H334.954a5.538,5.538,0,1,1,0-11.077h14.524a5.538,5.538,0,1,1,0,11.077" transform="translate(1211 17706)" fill="#f19a95"/>
      <path id="Path_18807" data-name="Path 18807" d="M288.648,21.906a2,2,0,1,0-2,2,2,2,0,0,0,2-2" transform="translate(1211 17706)"/>
      <path id="Path_18808" data-name="Path 18808" d="M296.109,21.906a2,2,0,1,0-2,2,2,2,0,0,0,2-2" transform="translate(1211 17706)"/>
      <path id="Path_18809" data-name="Path 18809" d="M303.569,21.906a2,2,0,1,0-2,2,2,2,0,0,0,2-2" transform="translate(1211 17706)"/>
      <path id="Path_18810" data-name="Path 18810" d="M336.914,111.28v-7.006h30.36v7.006" transform="translate(1211 17706)" fill="none" stroke="#000" stroke-linecap="round" stroke-linejoin="round" stroke-width="2"/>
      <path id="Path_18811" data-name="Path 18811" d="M337.828,98.85l-3.27-2.9a13.965,13.965,0,0,1-3.69-5.348l-4.7-12.962a2.251,2.251,0,0,1,1.168-2.8,3.992,3.992,0,0,1,1.7-.374,4.091,4.091,0,0,1,3.62,2.219l4.3,8.641a5.686,5.686,0,0,0,2.289-4.554V53.23a3.5,3.5,0,0,1,7.008,0V71.913a3.5,3.5,0,0,1,7.007,0v1.168a3.5,3.5,0,0,1,7.006,0v2.336a3.5,3.5,0,1,1,7.006,0V94.31a7.987,7.987,0,0,1-1.338,4.416" transform="translate(1211 17706)" fill="#fff"/>
      <path id="Path_18812" data-name="Path 18812" d="M337.828,98.85l-3.27-2.9a13.965,13.965,0,0,1-3.69-5.348l-4.7-12.962a2.251,2.251,0,0,1,1.168-2.8,3.992,3.992,0,0,1,1.7-.374,4.091,4.091,0,0,1,3.62,2.219l4.3,8.641a5.686,5.686,0,0,0,2.289-4.554V53.23a3.5,3.5,0,0,1,7.008,0V71.913a3.5,3.5,0,0,1,7.007,0v1.168a3.5,3.5,0,0,1,7.006,0v2.336a3.5,3.5,0,1,1,7.006,0V94.31a7.987,7.987,0,0,1-1.338,4.416" transform="translate(1211 17706)" fill="none" stroke="#000" stroke-linecap="round" stroke-linejoin="round" stroke-width="2"/>
      <line id="Line_486" data-name="Line 486" y2="3.503" transform="translate(1557.256 17777.914)" fill="none" stroke="#000" stroke-linecap="round" stroke-linejoin="round" stroke-width="2"/>
      <line id="Line_487" data-name="Line 487" y2="3.503" transform="translate(1564.299 17777.914)" fill="none" stroke="#000" stroke-linecap="round" stroke-linejoin="round" stroke-width="2"/>
      <line id="Line_488" data-name="Line 488" y2="3.503" transform="translate(1571.217 17780.117)" fill="none" stroke="#000" stroke-linecap="round" stroke-linejoin="round" stroke-width="2"/>
    </g>
    <g id="Group_6692" data-name="Group 6692">
      <path id="Path_18813" data-name="Path 18813" d="M492.656,65.776A26.16,26.16,0,1,0,466.5,91.935a26.159,26.159,0,0,0,26.159-26.159" transform="translate(1211 17706)" fill="#00d8ae"/>
      <path id="Path_18814" data-name="Path 18814" d="M492.656,65.776A26.16,26.16,0,1,0,466.5,91.935,26.159,26.159,0,0,0,492.656,65.776Z" transform="translate(1211 17706)" fill="none" stroke="#00d8ae" stroke-miterlimit="10" stroke-width="1"/>
      <path id="Path_18815" data-name="Path 18815" d="M474.926,41.716a25.471,25.471,0,1,0,15.11,14.272" transform="translate(1211 17706)" fill="none" stroke="#000" stroke-linecap="round" stroke-linejoin="round" stroke-width="2"/>
      <line id="Line_489" data-name="Line 489" y1="19.574" x2="19.574" transform="translate(1677.496 17752.201)" fill="none" stroke="#000" stroke-linecap="round" stroke-linejoin="round" stroke-width="2"/>
      <line id="Line_490" data-name="Line 490" x1="11.882" y1="9.569" transform="translate(1665.614 17762.207)" fill="none" stroke="#000" stroke-linecap="round" stroke-linejoin="round" stroke-width="2"/>
      <path id="Path_18816" data-name="Path 18816" d="M470.117,65.776a3.62,3.62,0,1,0-3.62,3.62,3.62,3.62,0,0,0,3.62-3.62" transform="translate(1211 17706)"/>
      <path id="Path_18817" data-name="Path 18817" d="M428.425,60.127l-8.619,6.288-8.56-6.2" transform="translate(1211 17706)" fill="none" stroke="#000" stroke-linecap="round" stroke-linejoin="round" stroke-width="2"/>
      <path id="Path_18818" data-name="Path 18818" d="M419.836,65.774A47.007,47.007,0,0,1,511.028,49.74" transform="translate(1211 17706)" fill="none" stroke="#000" stroke-linecap="round" stroke-linejoin="round" stroke-width="2"/>
      <path id="Path_18819" data-name="Path 18819" d="M504.568,71.425l8.619-6.288,8.56,6.2" transform="translate(1211 17706)" fill="none" stroke="#000" stroke-linecap="round" stroke-linejoin="round" stroke-width="2"/>
      <path id="Path_18820" data-name="Path 18820" d="M513.157,65.778a47.007,47.007,0,0,1-91.192,16.034" transform="translate(1211 17706)" fill="none" stroke="#000" stroke-linecap="round" stroke-linejoin="round" stroke-width="2"/>
    </g>
    <g id="Group_6695" data-name="Group 6695">
      <path id="Path_18821" data-name="Path 18821" d="M8.151,105.166l3.467-14.857a79.5,79.5,0,0,0,1.59-8.141,14.163,14.163,0,0,1,7.944-11.012L38.08,63.384a10,10,0,0,0,5.472-6.447l.95-3.469" transform="translate(1211 17706)" fill="none" stroke="#a2f4a2" stroke-miterlimit="10" stroke-width="1"/>
      <path id="Path_18822" data-name="Path 18822" d="M99.457,105.166,96.024,90.454c-.651-2.79-1.257-5.594-1.643-8.433a14.164,14.164,0,0,0-7.925-10.865L69.528,63.384a10,10,0,0,1-5.472-6.447l-.95-3.469" transform="translate(1211 17706)" fill="none" stroke="#a2f4a2" stroke-miterlimit="10" stroke-width="1"/>
      <path id="Path_18823" data-name="Path 18823" d="M8.151,105.166l3.467-14.857a79.5,79.5,0,0,0,1.59-8.141,14.163,14.163,0,0,1,7.944-11.012L38.08,63.384a10,10,0,0,0,5.472-6.447l.95-3.469" transform="translate(1211 17706)" fill="none" stroke="#000" stroke-linecap="round" stroke-linejoin="round" stroke-width="2"/>
      <path id="Path_18824" data-name="Path 18824" d="M99.457,105.166,96.024,90.454c-.651-2.79-1.257-5.594-1.643-8.433a14.164,14.164,0,0,0-7.925-10.865L69.528,63.384a10,10,0,0,1-5.472-6.447l-.95-3.469" transform="translate(1211 17706)" fill="none" stroke="#000" stroke-linecap="round" stroke-linejoin="round" stroke-width="2"/>
      <path id="Path_18825" data-name="Path 18825" d="M69.908,23.851V38.84c0,9.552-7.21,17.3-16.1,17.3s-16.1-7.744-16.1-17.3V28.475" transform="translate(1211 17706)" fill="none" stroke="#000" stroke-linecap="round" stroke-linejoin="round" stroke-width="2"/>
      <line id="Line_491" data-name="Line 491" y2="40.49" transform="translate(1246.203 17771.676)" fill="none" stroke="#000" stroke-linecap="round" stroke-linejoin="round" stroke-width="2"/>
      <line id="Line_492" data-name="Line 492" y2="40.49" transform="translate(1283.442 17771.676)" fill="none" stroke="#000" stroke-linecap="round" stroke-linejoin="round" stroke-width="2"/>
      <path id="Path_18826" data-name="Path 18826" d="M29.341,62.78a10.857,10.857,0,0,1-5.49-16.11v-.02a.1.1,0,0,0,.04-.05,11.306,11.306,0,0,1,1.22-1.54c4.63-6.11,5.38-11.16,4.91-18.76,0-.11-.01-.23-.02-.34a.97.97,0,0,0-.01-.17H30c-.01-.31-.03-.63-.03-.94a23.85,23.85,0,1,1,47.7,0c0,.31-.01.63-.03.94h.01c0,.06-.01.11-.01.17,0,.11-.01.23-.02.34-.47,7.6.29,12.65,4.91,18.76a11.306,11.306,0,0,1,1.22,1.54.218.218,0,0,0,.04.05v.02a10.858,10.858,0,0,1-5.46,16.1c-.01,0-.01,0-.02.01" transform="translate(1211 17706)" fill="none" stroke="#000" stroke-linecap="round" stroke-linejoin="round" stroke-width="2"/>
      <path id="Path_18827" data-name="Path 18827" d="M29.953,24.755C56.554,24.755,66,8.377,66,4.36" transform="translate(1211 17706)" fill="none" stroke="#000" stroke-linecap="round" stroke-linejoin="round" stroke-width="2"/>
      <path id="Path_18828" data-name="Path 18828" d="M62.8,16.609c2.7,6.1,8.3,8.187,14.854,8.187" transform="translate(1211 17706)" fill="none" stroke="#000" stroke-linecap="round" stroke-linejoin="round" stroke-width="2"/>
      <path id="Path_18829" data-name="Path 18829" d="M35.2,73.1a83.384,83.384,0,0,0,18.62,2.07,84.6,84.6,0,0,0,13.93-1.142q2.387-.4,4.69-.928" transform="translate(1211 17706)" fill="none" stroke="#000" stroke-linecap="round" stroke-linejoin="round" stroke-width="2"/>
      <path id="Path_18830" data-name="Path 18830" d="M81.683,112.775l2.68-26.56a4,4,0,0,0-3.89-4.9H27.183a4,4,0,0,0-3.9,4.9l2.68,26.56" transform="translate(1211 17706)" fill="#d2ecff"/>
      <path id="Path_18831" data-name="Path 18831" d="M81.683,112.775l2.68-26.56a4,4,0,0,0-3.89-4.9H27.183a4,4,0,0,0-3.9,4.9l2.68,26.56" transform="translate(1211 17706)" fill="none" stroke="#000" stroke-linecap="round" stroke-linejoin="round" stroke-width="2"/>
      <line id="Line_493" data-name="Line 493" x1="105.646" transform="translate(1212 17818.777)" fill="none" stroke="#000" stroke-linecap="round" stroke-linejoin="round" stroke-width="2"/>
      <path id="Path_18832" data-name="Path 18832" d="M57.066,97.045a3.244,3.244,0,1,0-3.243,3.243A3.243,3.243,0,0,0,57.066,97.045Z" transform="translate(1211 17706)" fill="none" stroke="#000" stroke-linecap="round" stroke-linejoin="round" stroke-width="2"/>
      <path id="Path_18833" data-name="Path 18833" d="M58.812,48.209H55.073a2.666,2.666,0,1,1,0-5.331h3.739a2.666,2.666,0,0,1,0,5.331Z" transform="translate(1211 17706)" fill="none" stroke="#000" stroke-linecap="round" stroke-linejoin="round" stroke-width="2"/>
      <path id="Path_18834" data-name="Path 18834" d="M69.87,35.834c-1.12,5.553-4.773,9.709-8.392,9.709" transform="translate(1211 17706)" fill="none" stroke="#000" stroke-linecap="round" stroke-linejoin="round" stroke-width="2"/>
    </g>
  </g>
</svg>
